<svg xmlns="http://www.w3.org/2000/svg" xmlns:xlink="http://www.w3.org/1999/xlink" version="1.1" x="0px" y="0px" viewBox="0 0 74 91.875" enable-background="new 0 0 74 73.5" xml:space="preserve"><g><polygon points="2,32.5 37,2 72,32.5  "/><path d="M2,32.5l1.314,1.508L37,4.653L66.66,30.5H2V32.5l1.314,1.508L2,32.5v2h70c0.833,0,1.58-0.518,1.873-1.299   c0.292-0.78,0.069-1.662-0.56-2.209l-35-30.5c-0.751-0.654-1.876-0.654-2.627,0l-35,30.5c-0.628,0.547-0.851,1.429-0.559,2.209   C0.419,33.982,1.167,34.5,2,34.5V32.5z"/><polygon points="12,38.15 12,71.5 28.869,71.5 28.869,52.825 45.131,52.825 45.131,71.5 62,71.5 62,38.15  "/><path d="M12,38.15h-2V71.5c0,0.526,0.213,1.042,0.586,1.414C10.958,73.287,11.473,73.5,12,73.5h16.869   c0.527,0,1.042-0.213,1.414-0.586c0.373-0.372,0.586-0.888,0.586-1.414V54.825h12.262V71.5c0,0.526,0.213,1.042,0.586,1.414   c0.372,0.373,0.888,0.586,1.414,0.586H62c0.526,0,1.042-0.213,1.414-0.586C63.787,72.542,64,72.026,64,71.5V38.15   c0-0.526-0.213-1.042-0.586-1.414C63.042,36.364,62.526,36.15,62,36.15H12c-0.527,0-1.042,0.213-1.414,0.586   C10.213,37.108,10,37.624,10,38.15H12v2h48V69.5H47.131V52.825c0-0.526-0.213-1.042-0.586-1.414   c-0.372-0.372-0.888-0.586-1.414-0.586H28.869c-0.527,0-1.042,0.213-1.415,0.586c-0.372,0.372-0.585,0.888-0.585,1.414V69.5H14   V38.15H12v2V38.15z"/><rect x="52.125" y="8.775" width="6.5" height="11.3"/><path d="M52.125,8.775v2h4.5v7.3h-2.5v-9.3H52.125v2V8.775h-2v11.3c0,0.526,0.213,1.042,0.586,1.414   c0.372,0.373,0.888,0.586,1.414,0.586h6.5c0.526,0,1.042-0.213,1.414-0.586c0.372-0.372,0.586-0.888,0.586-1.414v-11.3   c0-0.527-0.213-1.042-0.586-1.414c-0.372-0.373-0.888-0.586-1.414-0.586h-6.5c-0.526,0-1.042,0.213-1.414,0.586   c-0.373,0.372-0.586,0.887-0.586,1.414H52.125z"/></g><text x="0" y="88.5" fill="#000000" font-size="5px" font-weight="bold" font-family="'Helvetica Neue', Helvetica, Arial-Unicode, Arial, Sans-serif">Created by Oli Milne</text><text x="0" y="93.5" fill="#000000" font-size="5px" font-weight="bold" font-family="'Helvetica Neue', Helvetica, Arial-Unicode, Arial, Sans-serif">from the Noun Project</text></svg>